<svg width="36" height="36" viewBox="0 0 36 36" fill="none" xmlns="http://www.w3.org/2000/svg">
<path d="M23.4 24H26.1C26.55 24 27 23.4 27 22.8V10.2C27 9.6 26.55 9 26.1 9H23.4C22.95 9 22.5 9.6 22.5 10.2V22.8C22.5 23.4 22.95 24 23.4 24ZM30.15 24H32.85C33.3 24 33.75 23.4 33.75 22.8V1.2C33.75 0.6 33.3 0 32.85 0H30.15C29.7 0 29.25 0.6 29.25 1.2V22.8C29.25 23.4 29.7 24 30.15 24ZM9.9 24H12.6C13.05 24 13.5 23.4 13.5 22.8V16.2C13.5 15.6 13.05 15 12.6 15H9.9C9.45 15 9 15.6 9 16.2V22.8C9 23.4 9.45 24 9.9 24ZM16.65 24H19.35C19.8 24 20.25 23.4 20.25 22.8V4.2C20.25 3.6 19.8 3 19.35 3H16.65C16.2 3 15.75 3.6 15.75 4.2V22.8C15.75 23.4 16.2 24 16.65 24ZM34.875 30H4.5V1.5C4.5 0.67125 3.99656 0 3.375 0H1.125C0.503438 0 0 0.67125 0 1.5V33C0 34.6566 1.00758 36 2.25 36H34.875C35.4966 36 36 35.3288 36 34.5V31.5C36 30.6712 35.4966 30 34.875 30Z" fill="#F2F5F7"/>
</svg>
