<svg width="36" height="38" viewBox="0 0 36 36" fill="none" xmlns="http://www.w3.org/2000/svg">
<path d="M5.14286 16.625H6.22768C8.2125 20.8184 12.7286 23.75 18 23.75C23.2714 23.75 27.7875 20.8184 29.7723 16.625H30.8571C31.5643 16.625 32.1429 16.0906 32.1429 15.4375V8.3125C32.1429 7.65938 31.5643 7.125 30.8571 7.125H29.7723C27.7875 2.93164 23.2714 0 18 0C12.7286 0 8.2125 2.93164 6.22768 7.125H5.14286C4.43571 7.125 3.85714 7.65938 3.85714 8.3125V15.4375C3.85714 16.0906 4.43571 16.625 5.14286 16.625ZM8.35714 10.0938C8.35714 8.45352 10.0848 7.125 12.2143 7.125H23.7857C25.9152 7.125 27.6429 8.45352 27.6429 10.0938V11.875C27.6429 15.8086 24.1875 19 19.9286 19H16.0714C11.8125 19 8.35714 15.8086 8.35714 11.875V10.0938ZM14.1429 15.4375L15.1071 12.7656L18 11.875L15.1071 10.9844L14.1429 8.3125L13.1786 10.9844L10.2857 11.875L13.1786 12.7656L14.1429 15.4375ZM26.325 23.8539C23.9223 25.2863 21.0696 26.125 18 26.125C14.9304 26.125 12.0777 25.2863 9.675 23.8539C4.25089 24.3809 0 28.5742 0 33.725V34.4375C0 36.4043 1.72768 38 3.85714 38H10.2857V33.25C10.2857 31.9363 11.4348 30.875 12.8571 30.875H23.1429C24.5652 30.875 25.7143 31.9363 25.7143 33.25V38H32.1429C34.2723 38 36 36.4043 36 34.4375V33.725C36 28.5742 31.7491 24.3809 26.325 23.8539ZM21.8571 33.25C21.15 33.25 20.5714 33.7844 20.5714 34.4375C20.5714 35.0906 21.15 35.625 21.8571 35.625C22.5643 35.625 23.1429 35.0906 23.1429 34.4375C23.1429 33.7844 22.5643 33.25 21.8571 33.25ZM14.1429 33.25C13.4357 33.25 12.8571 33.7844 12.8571 34.4375V38H15.4286V34.4375C15.4286 33.7844 14.85 33.25 14.1429 33.25Z" fill="#F2F5F7"/>
</svg>
