<svg width="40" height="40" viewBox="0 0 40 40" fill="none" xmlns="http://www.w3.org/2000/svg">
<path d="M10 7.5C8.67392 7.5 7.40215 8.02678 6.46447 8.96447C5.52678 9.90215 5 11.1739 5 12.5V13.0025L20 21.08L35 13.005V12.5C35 11.1739 34.4732 9.90215 33.5355 8.96447C32.5979 8.02678 31.3261 7.5 30 7.5H10Z" fill="#F2F5F7"/>
<path d="M35 15.8425L20.5925 23.6C20.4104 23.698 20.2068 23.7493 20 23.7493C19.7932 23.7493 19.5896 23.698 19.4075 23.6L5 15.8425V27.5C5 28.8261 5.52678 30.0979 6.46447 31.0355C7.40215 31.9732 8.67392 32.5 10 32.5H30C31.3261 32.5 32.5979 31.9732 33.5355 31.0355C34.4732 30.0979 35 28.8261 35 27.5V15.8425Z" fill="#F2F5F7"/>
</svg>
