<svg width="38" height="38" viewBox="0 0 38 38" fill="none" xmlns="http://www.w3.org/2000/svg">
<path d="M6.34917 9.51584H31.6825V12.6825H6.34917V9.51584Z" fill="#F2F5F7"/>
<path d="M9.51584 3.1825H28.5158V6.34916H9.51584V3.1825Z" fill="#F2F5F7"/>
<path d="M31.6667 15.8333H6.33334C5.49349 15.8333 4.68803 16.167 4.09417 16.7608C3.5003 17.3547 3.16667 18.1602 3.16667 19V31.6667C3.16667 32.5065 3.5003 33.312 4.09417 33.9059C4.68803 34.4997 5.49349 34.8333 6.33334 34.8333H31.6667C32.5065 34.8333 33.312 34.4997 33.9058 33.9059C34.4997 33.312 34.8333 32.5065 34.8333 31.6667V19C34.8333 18.1602 34.4997 17.3547 33.9058 16.7608C33.312 16.167 32.5065 15.8333 31.6667 15.8333ZM16.3083 31.6667L11.0833 26.5367L13.3 24.32L16.3083 27.3283L24.7 18.9367L26.9167 21.1533L16.3083 31.6667Z" fill="#F2F5F7"/>
</svg>
